<svg width="183" height="122" viewBox="0 0 183 122" fill="none" xmlns="http://www.w3.org/2000/svg">
<path d="M45.0666 103.907C42.0111 116.163 29.5975 123.622 17.3398 120.566C5.0872 117.51 -2.37171 105.096 0.685166 92.8404C3.73936 80.5828 16.153 73.1233 28.4069 76.1789C40.6637 79.2344 48.1222 91.6501 45.0663 103.907L45.0665 103.907H45.0666Z" fill="#00BDFF"/>
<path fill-rule="evenodd" clip-rule="evenodd" d="M22.5288 83.8669L22.5313 83.8583L31.7427 99.1427L31.7376 99.1458L31.7379 99.1459L22.5279 104.59V104.59L22.5277 104.59L22.5276 104.59V104.59L13.3173 99.1459L13.3199 99.1448L13.3171 99.1431L22.5288 83.8588V83.8669ZM22.529 113.859V113.867L13.3173 100.887L22.529 106.329V106.332L22.5317 106.329L31.7487 100.887L22.5317 113.867L22.529 113.859Z" fill="white"/>
<circle cx="22.8755" cy="73.2068" r="22.8755" fill="#8247E5"/>
<path d="M29.7979 68.9305C29.3209 68.6565 28.7077 68.6565 28.1626 68.9305L24.3468 71.1911L21.7575 72.6297L18.0099 74.8904C17.5329 75.1644 16.9196 75.1644 16.3745 74.8904L13.4445 73.1092C12.9676 72.8352 12.6269 72.2872 12.6269 71.6707V68.2454C12.6269 67.6974 12.8994 67.1494 13.4445 66.8068L16.3745 65.0942C16.8515 64.8202 17.4647 64.8202 18.0099 65.0942L20.9398 66.8753C21.4168 67.1494 21.7575 67.6974 21.7575 68.3139V70.5746L24.3468 69.0675V66.7383C24.3468 66.1903 24.0742 65.6423 23.5291 65.2997L18.078 62.08C17.601 61.806 16.9878 61.806 16.4427 62.08L10.8553 65.3682C10.3102 65.6423 10.0376 66.1903 10.0376 66.7383V73.1778C10.0376 73.7258 10.3102 74.2738 10.8553 74.6163L16.3745 77.8361C16.8515 78.1101 17.4647 78.1101 18.0099 77.8361L21.7575 75.6439L24.3468 74.1368L28.0944 71.9447C28.5714 71.6707 29.1847 71.6707 29.7298 71.9447L32.6597 73.6573C33.1367 73.9313 33.4774 74.4793 33.4774 75.0959V78.5211C33.4774 79.0691 33.2049 79.6172 32.6597 79.9597L29.7979 81.6723C29.3209 81.9463 28.7077 81.9463 28.1626 81.6723L25.2326 79.9597C24.7556 79.6857 24.4149 79.1376 24.4149 78.5211V76.329L21.8256 77.8361V80.0967C21.8256 80.6447 22.0982 81.1928 22.6433 81.5353L28.1626 84.755C28.6395 85.029 29.2528 85.029 29.7979 84.755L35.3172 81.5353C35.7941 81.2613 36.1348 80.7132 36.1348 80.0967V73.5888C36.1348 73.0407 35.8623 72.4927 35.3172 72.1502L29.7979 68.9305Z" fill="white"/>
<path d="M45.0666 53.5755C42.0111 65.8317 29.5975 73.2907 17.3398 70.2343C5.0872 67.1788 -2.37171 54.7644 0.685166 42.5092C3.73936 30.2516 16.153 22.7921 28.4069 25.8476C40.6637 28.9032 48.1222 41.3189 45.0663 53.5757L45.0665 53.5755H45.0666Z" fill="#F7931A"/>
<path d="M32.9903 44.7422C33.4456 41.6976 31.1277 40.0611 27.9581 38.9693L28.9863 34.8451L26.4758 34.2196L25.4749 38.2352C24.8149 38.0705 24.1371 37.9154 23.4635 37.7617L24.4717 33.7196L21.9628 33.0941L20.934 37.2169C20.3878 37.0925 19.8514 36.9696 19.3309 36.8401L19.3338 36.8271L15.8718 35.9626L15.204 38.644C15.204 38.644 17.0666 39.0709 17.0273 39.0972C18.0439 39.351 18.2278 40.0239 18.1972 40.5573L17.026 45.2557C17.096 45.2735 17.1868 45.2992 17.287 45.3395C17.2032 45.3187 17.1141 45.296 17.0216 45.2738L15.3799 51.8556C15.2556 52.1644 14.9403 52.628 14.2295 52.452C14.2547 52.4884 12.4049 51.9966 12.4049 51.9966L11.1584 54.8703L14.4255 55.6847C15.0332 55.8372 15.6288 55.9966 16.2153 56.1466L15.1765 60.318L17.6841 60.9436L18.7129 56.8164C19.3979 57.0024 20.0627 57.1739 20.7136 57.3356L19.6882 61.4433L22.1988 62.0689L23.2376 57.9053C27.5185 58.7155 30.7374 58.3888 32.0923 54.5167C33.1841 51.3992 32.038 49.6011 29.7858 48.4284C31.4262 48.0501 32.6617 46.9712 32.9912 44.7425L32.9904 44.742L32.9903 44.7422ZM27.2544 52.7854C26.4785 55.9029 21.2296 54.2177 19.5279 53.7951L20.9065 48.2686C22.6081 48.6935 28.0652 49.5342 27.2545 52.7854H27.2544ZM28.0308 44.697C27.323 47.5327 22.9543 46.0921 21.5372 45.7388L22.787 40.7266C24.2042 41.0799 28.7681 41.7392 28.031 44.697H28.0308Z" fill="white"/>
<path d="M181.733 70.8609C181.733 70.8609 181.733 70.8609 181.733 70.861C176.081 93.5338 153.117 107.332 130.441 101.678C107.775 96.0257 93.9771 73.0603 99.632 50.3892C105.282 27.7138 128.246 13.9145 150.915 19.567C173.588 25.2194 187.386 48.187 181.733 70.8608C181.733 70.8609 181.733 70.861 181.733 70.8609L181.733 70.8609C181.733 70.8609 181.733 70.8609 181.733 70.8609V70.8609Z" fill="#37DCF2"/>
<path d="M135.136 88.0685C130.927 88.0685 127.135 86.5992 124.162 83.82C120.338 80.2446 118.236 74.8729 118.236 68.6952C118.236 61.4789 122.114 55.2478 124.947 50.6991L125.38 49.9995C125.674 49.5251 126.237 49.2564 126.817 49.3169C127.398 49.375 127.888 49.7478 128.069 50.2707C129.934 55.6666 132.79 59.8325 135.309 63.5075C138.144 67.6445 140.593 71.2174 140.593 75.1706C140.593 78.3782 138.131 80.7046 134.741 80.7046C132.77 80.7046 130.956 79.9106 129.488 78.4097C126.637 75.4901 125.439 70.2496 125.762 66.7999C125.834 66.0347 126.554 65.4683 127.367 65.5361C128.182 65.6038 128.783 66.2768 128.714 67.042C128.448 69.879 129.506 74.3136 131.673 76.5312C132.589 77.4679 133.593 77.9255 134.743 77.9255C136.526 77.9255 137.633 76.87 137.633 75.1706C137.633 72.0334 135.507 68.9347 132.819 65.0106C130.651 61.8492 128.244 58.3367 126.353 53.9648C123.902 58.0098 121.195 63.125 121.195 68.6952C121.195 74.1297 122.991 78.8018 126.252 81.852C128.657 84.1009 131.727 85.2896 135.136 85.2896C135.151 85.2896 135.164 85.2896 135.177 85.2896C140.954 85.2726 145.312 81.0944 145.312 75.5702C145.312 69.9394 142.009 65.1147 138.818 60.4474C135.659 55.8312 132.393 51.0598 132.375 45.5332C132.375 40.8151 134.793 36.5255 139.181 33.4462C139.798 33.0153 140.662 33.0952 141.173 33.6351C144.641 37.2832 161.941 56.1605 161.985 69.5473C162.008 76.4392 159.222 82.4232 154.34 85.9648C153.852 86.3183 153.181 86.3524 152.655 86.0497C152.131 85.7445 151.86 85.1688 151.979 84.5996C152.81 80.6104 152.957 79.3925 152.957 76.4514C152.957 67.9133 147.972 60.1884 143.575 53.3765C142.311 51.4181 141.119 49.5711 140.077 47.7627C139.687 47.0873 139.955 46.2449 140.675 45.8794C141.393 45.5138 142.293 45.7656 142.683 46.441C143.692 48.1888 144.866 50.0092 146.109 51.9386C150.707 59.0627 155.919 67.1385 155.919 76.4536C155.919 78.095 155.875 79.2545 155.707 80.5884C157.862 77.6423 159.038 73.8101 159.023 69.5569C158.992 60.2781 148.911 46.1868 139.899 36.4843C137.853 38.1934 135.337 41.1806 135.337 45.5332C135.352 50.244 138.247 54.4731 141.31 58.949C144.734 63.9528 148.274 69.1259 148.274 75.5725C148.274 82.5589 142.525 88.0493 135.187 88.071C135.172 88.0687 135.154 88.0685 135.136 88.0685Z" fill="white"/>
<path d="M22.8755 45.7511C35.5525 45.7511 45.7511 35.5525 45.7511 22.8755C45.7511 10.1986 35.5525 0 22.8755 0C10.1986 0 0 10.1986 0 22.8755C0 35.5525 10.1986 45.7511 22.8755 45.7511Z" fill="#2775CA" fill-opacity="0.05"/>
<path d="M22.8755 45.7511C35.5525 45.7511 45.7511 35.5525 45.7511 22.8755C45.7511 10.1986 35.5525 0 22.8755 0C10.1986 0 0 10.1986 0 22.8755C0 35.5525 10.1986 45.7511 22.8755 45.7511Z" fill="#2775CA"/>
<path d="M29.2298 26.544C29.2298 23.1956 27.2097 22.0475 23.1694 21.5692C20.2836 21.1864 19.7064 20.4211 19.7064 19.0816C19.7064 17.742 20.6684 16.8812 22.5923 16.8812C24.3238 16.8812 25.2858 17.4552 25.7667 18.8903C25.863 19.1773 26.1516 19.3686 26.4402 19.3686H27.9792C28.364 19.3686 28.6526 19.0816 28.6526 18.699V18.6033C28.2678 16.4984 26.5362 14.8721 24.3238 14.6808V12.3847C24.3238 12.0019 24.0352 11.7149 23.5543 11.6191H22.1114C21.7265 11.6191 21.4379 11.9062 21.3416 12.3847V14.5851C18.4558 14.9678 16.6282 16.8812 16.6282 19.2731C16.6282 22.4303 18.552 23.6739 22.5923 24.1524C25.2858 24.6307 26.1516 25.2047 26.1516 26.7355C26.1516 28.2664 24.8047 29.3187 22.9771 29.3187C20.4759 29.3187 19.6101 28.2661 19.3215 26.831C19.2255 26.4485 18.9369 26.257 18.6483 26.257H17.0128C16.6282 26.257 16.3396 26.544 16.3396 26.9268V27.0225C16.7242 29.4142 18.2634 31.1363 21.4379 31.6148V33.9109C21.4379 34.2935 21.7265 34.5805 22.2074 34.6762H23.6503C24.0352 34.6762 24.3238 34.3892 24.4201 33.9109V31.6148C27.3059 31.1363 29.2298 29.1272 29.2298 26.544V26.544Z" fill="white"/>
<path d="M18.0018 36.4444C10.5481 33.7853 6.72567 25.5225 9.49706 18.2094C10.9305 14.2205 14.0839 11.1814 18.0018 9.75675C18.3841 9.56688 18.5752 9.28195 18.5752 8.80693V7.47737C18.5752 7.0974 18.3841 6.81247 18.0018 6.71765C17.9062 6.71765 17.7151 6.71765 17.6195 6.81247C8.54138 9.6617 3.57219 19.2542 6.43899 28.2767C8.15907 33.5952 12.2682 37.6792 17.6195 39.3887C18.0018 39.5786 18.3841 39.3887 18.4795 39.0087C18.5752 38.9139 18.5752 38.8188 18.5752 38.629V37.2992C18.5752 37.0143 18.2885 36.6345 18.0018 36.4444ZM28.1312 6.81247C27.7489 6.6226 27.3666 6.81247 27.2712 7.19245C27.1756 7.2875 27.1756 7.38232 27.1756 7.57242V8.90198C27.1756 9.28195 27.4622 9.6617 27.7489 9.8518C35.2026 12.5109 39.0251 20.7737 36.2537 28.0868C34.8203 32.0758 31.6668 35.1148 27.7489 36.5395C27.3666 36.7293 27.1756 37.0143 27.1756 37.4893V38.8188C27.1756 39.1988 27.3666 39.4837 27.7489 39.5786C27.8446 39.5786 28.0356 39.5786 28.1312 39.4837C37.2094 36.6345 42.1785 27.042 39.3117 18.0195C37.5917 12.606 33.3869 8.52201 28.1312 6.81247V6.81247Z" fill="white"/>
<path d="M56.0452 59.4763H86.9272" stroke="#CDCDCD" stroke-width="1.54459" stroke-linecap="round"/>
<path d="M83.4956 54.9013L88.047 59.4527L83.4956 64.0041" stroke="#CDCDCD" stroke-width="1.54459" stroke-linecap="round"/>
</svg>
