<svg width="21" height="16" viewBox="0 0 21 16" fill="none" xmlns="http://www.w3.org/2000/svg">
<path d="M17.1566 1.32631C15.8649 0.71242 14.4797 0.260131 13.0314 0.00108666C13.005 -0.00391282 12.9787 0.00858115 12.9651 0.0335697C12.7869 0.361747 12.5896 0.789881 12.4514 1.12639C10.8937 0.884845 9.34393 0.884845 7.81814 1.12639C7.67993 0.782401 7.47543 0.361747 7.29649 0.0335697C7.2829 0.00941489 7.25655 -0.00307908 7.23018 0.00108666C5.78268 0.259303 4.3975 0.711592 3.10497 1.32631C3.09378 1.33131 3.08419 1.33965 3.07782 1.35047C0.45042 5.4161 -0.269336 9.3818 0.0837521 13.2983C0.0853497 13.3175 0.0957346 13.3358 0.110114 13.3475C1.8436 14.666 3.52278 15.4665 5.17077 15.9971C5.19714 16.0054 5.22509 15.9954 5.24187 15.9729C5.63171 15.4215 5.97921 14.8401 6.27716 14.2287C6.29474 14.1929 6.27796 14.1504 6.24202 14.1363C5.69082 13.9197 5.16597 13.6557 4.66111 13.3558C4.62117 13.3317 4.61797 13.2725 4.65471 13.2442C4.76095 13.1617 4.86723 13.0759 4.96867 12.9893C4.98703 12.9735 5.0126 12.9701 5.03418 12.9801C8.35095 14.5486 11.9417 14.5486 15.2194 12.9801C15.241 12.9693 15.2665 12.9726 15.2857 12.9885C15.3872 13.0751 15.4934 13.1617 15.6005 13.2442C15.6372 13.2725 15.6348 13.3317 15.5949 13.3558C15.09 13.6615 14.5651 13.9197 14.0131 14.1354C13.9772 14.1496 13.9612 14.1929 13.9788 14.2287C14.2831 14.8393 14.6307 15.4207 15.0133 15.9721C15.0293 15.9954 15.058 16.0054 15.0844 15.9971C16.7404 15.4665 18.4195 14.666 20.153 13.3475C20.1682 13.3358 20.1778 13.3183 20.1794 13.2992C20.602 8.77122 19.4716 4.83804 17.1829 1.3513C17.1773 1.33965 17.1678 1.33131 17.1566 1.32631ZM6.77246 10.9136C5.77389 10.9136 4.95109 9.96403 4.95109 8.79789C4.95109 7.63175 5.75793 6.6822 6.77246 6.6822C7.79496 6.6822 8.60979 7.64009 8.59381 8.79789C8.59381 9.96403 7.78697 10.9136 6.77246 10.9136ZM13.5067 10.9136C12.5081 10.9136 11.6853 9.96403 11.6853 8.79789C11.6853 7.63175 12.4921 6.6822 13.5067 6.6822C14.5292 6.6822 15.344 7.64009 15.3281 8.79789C15.3281 9.96403 14.5292 10.9136 13.5067 10.9136Z" fill="white"/>
</svg>
