<svg width="146" height="146" viewBox="0 0 146 146" fill="none" xmlns="http://www.w3.org/2000/svg">
<circle opacity="0.8" cx="73.0001" cy="73" r="49.2059" stroke="#00BDFF"/>
<circle opacity="0.6" cx="72.9999" cy="73" r="56.8529" stroke="#00BDFF"/>
<circle opacity="0.2" cx="73" cy="73" r="64.5" stroke="#00BDFF"/>
<circle opacity="0.05" cx="73" cy="73" r="72.5" stroke="#00BDFF"/>
<circle cx="73" cy="73" r="42.0588" fill="#37DCF2"/>
<path d="M68.9477 97.4684C65.1963 97.4684 61.8152 96.1586 59.1656 93.6811C55.7569 90.4938 53.8823 85.7053 53.8823 80.1982C53.8823 73.7653 57.3393 68.2107 59.8648 64.1559L60.2512 63.5322C60.5134 63.1092 61.0148 62.8697 61.5323 62.9237C62.0498 62.9754 62.4869 63.3078 62.6478 63.7739C64.3108 68.584 66.857 72.2977 69.1018 75.5737C71.6296 79.2616 73.8124 82.4467 73.8124 85.9706C73.8124 88.83 71.6181 90.9039 68.5958 90.9039C66.8386 90.9039 65.2216 90.1961 63.9129 88.8582C61.3713 86.2555 60.3041 81.5839 60.5916 78.5087C60.656 77.8266 61.2977 77.3217 62.0222 77.3821C62.7491 77.4424 63.285 78.0424 63.2229 78.7245C62.986 81.2535 63.929 85.2068 65.861 87.1836C66.6776 88.0186 67.5723 88.4265 68.5981 88.4265C70.1875 88.4265 71.1742 87.4856 71.1742 85.9706C71.1742 83.1741 69.2789 80.4117 66.8823 76.9137C64.9502 74.0955 62.8043 70.9643 61.1183 67.067C58.9333 70.6729 56.5205 75.2327 56.5205 80.1982C56.5205 85.0428 58.1213 89.2077 61.0286 91.9268C63.1723 93.9315 65.9093 94.9911 68.9477 94.9911C68.9615 94.9911 68.973 94.9911 68.9845 94.9911C74.1344 94.976 78.0192 91.2514 78.0192 86.3269C78.0192 81.3074 75.0752 77.0065 72.2299 72.8458C69.4146 68.7308 66.5028 64.4774 66.4867 59.5507C66.4867 55.3448 68.6418 51.5209 72.5542 48.776C73.1039 48.3918 73.8744 48.4631 74.3299 48.9443C77.4211 52.1964 92.8431 69.0244 92.8822 80.9578C92.9029 87.1016 90.4188 92.436 86.0671 95.5931C85.6324 95.9082 85.0343 95.9385 84.5652 95.6687C84.0982 95.3967 83.8567 94.8834 83.9626 94.3761C84.7032 90.8199 84.8343 89.7342 84.8343 87.1124C84.8343 79.5012 80.3906 72.615 76.4712 66.5426C75.3442 64.7968 74.2816 63.1502 73.3523 61.5382C73.005 60.9362 73.2442 60.1852 73.8859 59.8593C74.5254 59.5335 75.3281 59.7579 75.6754 60.36C76.5748 61.9181 77.6213 63.5408 78.7299 65.2608C82.8286 71.6115 87.4747 78.8105 87.4747 87.1144C87.4747 88.5776 87.4356 89.6113 87.2861 90.8003C89.2066 88.174 90.2554 84.7579 90.2418 80.9664C90.214 72.6949 81.2278 60.1334 73.1936 51.4842C71.3697 53.0078 69.1271 55.6707 69.1271 59.5507C69.1409 63.7502 71.7216 67.5201 74.4518 71.5102C77.504 75.9707 80.6597 80.5822 80.6597 86.3289C80.6597 92.5569 75.5351 97.4512 68.9937 97.4706C68.9799 97.4686 68.9638 97.4684 68.9477 97.4684Z" fill="white"/>
</svg>
