<svg width="19" height="17" viewBox="0 0 19 17" fill="none" xmlns="http://www.w3.org/2000/svg">
<path d="M0.962313 4.1509C0.774323 4.91643 0.637019 5.90502 0.446005 7.28031C0.00983191 10.4208 -0.208255 11.991 0.271274 13.2105C0.69225 14.2812 1.46954 15.1739 2.47208 15.7381C3.61405 16.3809 5.19934 16.3809 8.36992 16.3809H9.99413C13.1647 16.3809 14.75 16.3809 15.892 15.7381C16.8945 15.1739 17.6718 14.2812 18.0928 13.2105C18.5723 11.991 18.3542 10.4208 17.9181 7.28031C17.7106 5.78669 17.5665 4.74915 17.352 3.95813L16.6216 4.68857C14.9893 6.32085 13.7102 7.60004 12.5779 8.46392C11.419 9.34815 10.3263 9.86765 9.0608 9.86765C7.79535 9.86765 6.70261 9.34815 5.54368 8.46392C4.41142 7.60004 3.13225 6.32085 1.49998 4.68856L0.962313 4.1509Z" fill="#FAFAFA"/>
<path d="M1.5747 2.64196L2.52006 3.58732C4.20172 5.26898 5.41074 6.47575 6.45355 7.27139C7.47905 8.05382 8.25518 8.36765 9.0608 8.36765C9.86641 8.36765 10.6425 8.05382 11.668 7.27139C12.7109 6.47575 13.9199 5.26898 15.6015 3.58732L16.6912 2.49762C16.1833 1.7779 15.4932 1.20395 14.6899 0.835692C13.6977 0.380859 12.4632 0.380859 9.99413 0.380859H8.36995C5.90089 0.380859 4.66636 0.380859 3.6742 0.835692C2.81789 1.22825 2.09026 1.85453 1.5747 2.64196Z" fill="#FAFAFA"/>
</svg>
