<svg version="1.0" xmlns="http://www.w3.org/2000/svg" viewBox="0 0 94 116"><path d="M39.9 3.8c-9.2 9.4-11.9 19.1-8.5 30.3 1.9 6.1 3.8 9.8 9.7 18.6 13.8 20.4 17.5 31.9 13.4 41.6-5.8 13.8-25.2 16-37 4.2-6.6-6.6-9.5-14.6-9.5-26 0-8.3 1.3-13.2 5.7-22.3 3.1-6.4 3.8-6.9 5.6-4 .8 1.3 5.2 8.4 9.9 15.8 9.5 15.3 11 18.4 11 23.6 0 4-1.3 5.4-5.3 5.4-5.5 0-10.2-6-11.4-14.5C22.3 67 21.9 66 19.9 66c-2.4 0-3.3 3.6-2.5 10 .9 6.6 3 11.3 7.1 15.9 5.4 6 13.8 6.5 19 1.3 2.1-2.1 2.5-3.4 2.5-8.4 0-6.9-1.1-9.4-11-24.4-3.8-5.8-8.3-13.5-10-17.2-5.1-11.2-5.4-11.4-8.6-8.5-3.6 3.4-9.9 15.9-13.3 26.4-1.6 5-1.4 19.5.4 25.3 6.1 19.9 26.9 31 43.3 23.1 12.8-6.2 18.1-19.2 13.8-33.6-1.9-6.2-3.4-9.1-12.5-23.3-12.7-19.9-14.5-27-9.5-37 2.5-5.1 4.8-7.6 6.9-7.6C47 8 60.2 24.2 66.6 34c10 15 14.2 24 16.4 35.3 1.1 5.3 1.1 7.7.1 12.4-1.3 6.2-3.2 11.3-4.2 11.3-.3 0-1.1-3.9-1.7-8.8-2-14.5-8-28.6-19.3-45.3-2.1-3.2-3.9-6.1-3.9-6.4 0-1.8-4.4-6.5-6.1-6.5-2.9 0-2.4 4.4 1 9.3 8 11.9 17 28.3 19.5 35.9 2.7 8.3 3.8 18.2 2.7 24.4-.6 3.2-1.1 7.3-1.1 9.1 0 5.1 3.7 4.5 9-1.4 6.5-7.4 9.9-15.8 10.7-26.7 1-11.8-8.1-33-22.2-51.8-10-13.6-20-24.7-22-24.7-1.1 0-3.6 1.7-5.6 3.7z" fill="white" stroke="black" stroke-width="2"/></svg>