<svg width="17" height="16" viewBox="0 0 17 16" fill="none" xmlns="http://www.w3.org/2000/svg">
<path d="M8.42105 0C3.77123 0 0 3.67255 0 8.20224C0 11.8263 2.41263 14.9007 5.7593 15.9855C6.17965 16.0614 6.31579 15.8071 6.31579 15.5911V14.0641C3.97333 14.5603 3.48561 13.0962 3.48561 13.0962C3.10246 12.1482 2.55018 11.896 2.55018 11.896C1.78596 11.3868 2.60842 11.3977 2.60842 11.3977C3.45404 11.4551 3.89895 12.2432 3.89895 12.2432C4.64982 13.4968 5.86877 13.1345 6.34947 12.9247C6.42456 12.395 6.64281 12.0327 6.88421 11.8283C5.01404 11.6198 3.04772 10.9165 3.04772 7.77436C3.04772 6.87826 3.37684 6.1469 3.91509 5.57274C3.82807 5.36563 3.53965 4.53106 3.99719 3.40188C3.99719 3.40188 4.70456 3.18179 6.31368 4.24261C6.98526 4.06079 7.70526 3.96989 8.42105 3.96647C9.13684 3.96989 9.85754 4.06079 10.5305 4.24261C12.1382 3.18179 12.8442 3.40188 12.8442 3.40188C13.3025 4.53174 13.014 5.36632 12.927 5.57274C13.4674 6.1469 13.7937 6.87895 13.7937 7.77436C13.7937 10.9247 11.8239 11.6185 9.94877 11.8215C10.2505 12.0758 10.5263 12.5747 10.5263 13.3403V15.5911C10.5263 15.8091 10.6611 16.0655 11.0884 15.9848C14.4323 14.8987 16.8421 11.8249 16.8421 8.20224C16.8421 3.67255 13.0716 0 8.42105 0Z" fill="white"/>
</svg>
