<svg xmlns="http://www.w3.org/2000/svg" width="24" height="24" viewBox="0 0 24 24" fill="none">
<path fill-rule="evenodd" clip-rule="evenodd" d="M4 11C4 7.13401 7.13401 4 11 4C14.866 4 18 7.13401 18 11C18 12.8867 17.2535 14.5991 16.0399 15.858C16.0062 15.884 15.9738 15.9124 15.9429 15.9433C15.9121 15.9741 15.8836 16.0065 15.8577 16.0402C14.5988 17.2537 12.8866 18 11 18C7.13401 18 4 14.866 4 11ZM16.6175 18.0321C15.0778 19.2636 13.1249 20 11 20C6.02944 20 2 15.9706 2 11C2 6.02944 6.02944 2 11 2C15.9706 2 20 6.02944 20 11C20 13.1251 19.2635 15.0782 18.0317 16.6179L21.7071 20.2933C22.0977 20.6838 22.0977 21.317 21.7071 21.7075C21.3166 22.098 20.6834 22.098 20.2929 21.7075L16.6175 18.0321Z" fill="white" fill-opacity="0.2"/>
</svg>