<svg width="116" height="125" viewBox="0 0 116 125" fill="none" xmlns="http://www.w3.org/2000/svg">
<circle cx="36.268" cy="36.268" r="36.268" fill="#E6007A" fill-opacity="0.05"/>
<circle cx="36.268" cy="36.268" r="36.268" fill="#E6007A"/>
<path d="M36.4846 14.6798C27.4673 14.716 20.1661 22.0172 20.1299 31.0345C20.1299 32.8404 20.4214 34.6342 20.9923 36.347C21.4183 37.5129 22.6826 38.1408 23.8693 37.7803C25.0163 37.3405 25.6252 36.0865 25.2595 34.9136C24.7748 33.5786 24.5592 32.1626 24.623 30.7448C24.8197 24.2318 30.258 19.1109 36.7709 19.3075C43.2838 19.5041 48.4048 24.9425 48.2082 31.4554C48.0236 37.5526 43.2217 42.5046 37.1314 42.8754C37.1314 42.8754 34.8357 43.0151 33.6938 43.1548C33.273 43.2152 32.8556 43.298 32.4434 43.4032C32.3847 43.4636 32.2898 43.4636 32.2295 43.4049L32.2278 43.4032C32.1864 43.3497 32.1864 43.2738 32.2278 43.2204L32.5831 41.2817L34.7391 31.5847C34.9978 30.3739 34.2268 29.1821 33.016 28.9234C31.8052 28.6646 30.6133 29.4356 30.3546 30.6464C30.3546 30.6464 25.2267 54.3817 25.2267 54.5973C24.9335 55.7512 25.6303 56.924 26.7842 57.2173C26.7963 57.2207 26.8101 57.2242 26.8222 57.2259H26.9412C28.0934 57.5243 29.2697 56.8309 29.5664 55.6787C29.5715 55.6597 29.5767 55.6408 29.5802 55.6201C29.5767 55.5839 29.5767 55.5476 29.5802 55.5131C29.644 55.2337 30.2908 52.0756 30.2908 52.0756C30.7806 49.6919 32.7021 47.8653 35.1065 47.4962C35.6015 47.4203 37.6816 47.2806 37.6816 47.2806C46.6645 46.3854 53.2205 38.3771 52.3236 29.3942C51.506 21.2013 44.7189 14.8937 36.4846 14.6798Z" fill="white"/>
<path d="M37.4763 52.3898C36.0016 52.0828 34.5596 53.0297 34.2526 54.5027C34.2491 54.5165 34.2474 54.5303 34.244 54.5441C33.9249 56.0085 34.8528 57.4556 36.3189 57.7747C36.3206 57.7747 36.3224 57.7747 36.3241 57.7764H36.4C37.835 58.1231 39.2787 57.24 39.6237 55.8067C39.6271 55.7963 39.6288 55.7843 39.6323 55.7739V55.6239C39.8858 54.144 38.9406 52.7244 37.4763 52.3898Z" fill="white"/>
<path d="M79.7323 124.923C99.8309 124.923 116 108.754 116 88.6552C116 68.5566 99.8309 52.3872 79.7323 52.3872C59.6337 52.3872 43.4644 68.5566 43.4644 88.6552C43.4644 108.754 59.6337 124.923 79.7323 124.923Z" fill="#2775CA" fill-opacity="0.05"/>
<path d="M79.7323 124.923C99.8309 124.923 116 108.754 116 88.6552C116 68.5566 99.8309 52.3872 79.7323 52.3872C59.6337 52.3872 43.4644 68.5566 43.4644 88.6552C43.4644 108.754 59.6337 124.923 79.7323 124.923Z" fill="#2775CA"/>
<path d="M89.8063 94.4718C89.8063 89.163 86.6036 87.3428 80.198 86.5845C75.6226 85.9777 74.7075 84.7643 74.7075 82.6405C74.7075 80.5167 76.2327 79.1519 79.2829 79.1519C82.0281 79.1519 83.5534 80.062 84.3158 82.3373C84.4685 82.7923 84.926 83.0956 85.3836 83.0956H87.8235C88.4337 83.0956 88.8913 82.6405 88.8913 82.034V81.8822C88.2811 78.5451 85.5358 75.9666 82.0281 75.6633V72.0229C82.0281 71.4161 81.5706 70.961 80.8082 70.8092H78.5204C77.9103 70.8092 77.4527 71.2643 77.3001 72.0229V75.5115C72.7247 76.1184 69.8272 79.1519 69.8272 82.9441C69.8272 87.9497 72.8773 89.9213 79.2829 90.68C83.5534 91.4383 84.926 92.3484 84.926 94.7754C84.926 97.2025 82.7906 98.8709 79.8931 98.8709C75.9275 98.8709 74.5549 97.2021 74.0973 94.9269C73.945 94.3204 73.4875 94.0168 73.03 94.0168H70.437C69.8272 94.0168 69.3696 94.4718 69.3696 95.0787V95.2305C69.9794 99.0223 72.4198 101.753 77.4527 102.511V106.152C77.4527 106.758 77.9103 107.213 78.6727 107.365H80.9604C81.5706 107.365 82.0281 106.91 82.1808 106.152V102.511C86.7562 101.753 89.8063 98.5673 89.8063 94.4718V94.4718Z" fill="white"/>
<path d="M72.0049 110.167C60.1875 105.952 54.1271 92.8514 58.521 81.2568C60.7936 74.9326 65.7933 70.1143 72.0049 67.8556C72.611 67.5546 72.9139 67.1029 72.9139 66.3497V64.2418C72.9139 63.6394 72.611 63.1876 72.0049 63.0373C71.8532 63.0373 71.5503 63.0373 71.3987 63.1876C57.0058 67.7049 49.1275 82.9134 53.6726 97.218C56.3997 105.65 62.9145 112.125 71.3987 114.835C72.0049 115.137 72.611 114.835 72.7623 114.233C72.9139 114.083 72.9139 113.932 72.9139 113.631V111.523C72.9139 111.071 72.4594 110.469 72.0049 110.167ZM88.0645 63.1876C87.4584 62.8866 86.8522 63.1876 86.701 63.7901C86.5494 63.9408 86.5493 64.0911 86.5493 64.3925V66.5004C86.5493 67.1029 87.0039 67.7049 87.4584 68.0063C99.2758 72.2222 105.336 85.3224 100.942 96.917C98.6696 103.241 93.67 108.06 87.4584 110.318C86.8522 110.619 86.5493 111.071 86.5493 111.824V113.932C86.5493 114.534 86.8522 114.986 87.4584 115.137C87.61 115.137 87.9129 115.137 88.0645 114.986C102.457 110.469 110.336 95.2604 105.791 80.9558C103.064 72.3729 96.3971 65.898 88.0645 63.1876V63.1876Z" fill="white"/>
<path d="M106.069 51.3796C104.774 42.3606 97.2902 23.8908 77.717 22.1638" stroke="#CDCDCD" stroke-width="1.59138" stroke-linecap="round"/>
<path d="M80.5945 25.4219L77.5243 22.1623L80.7839 19.0922" stroke="#CDCDCD" stroke-width="1.59138" stroke-linecap="round"/>
<path d="M10.9392 73.1114C12.2344 82.1304 19.7183 100.6 39.2915 102.327" stroke="#CDCDCD" stroke-width="1.59138" stroke-linecap="round"/>
<path d="M36.4141 99.0695L39.4842 102.329L36.2247 105.399" stroke="#CDCDCD" stroke-width="1.59138" stroke-linecap="round"/>
</svg>
