<svg width="20" height="17" viewBox="0 0 20 17" fill="none" xmlns="http://www.w3.org/2000/svg">
<path fill-rule="evenodd" clip-rule="evenodd" d="M15.32 16.2042C15.5883 16.3866 15.9341 16.4322 16.2425 16.3202C16.5508 16.2074 16.7775 15.9546 16.8458 15.6482C17.5699 12.381 19.3266 4.11138 19.9857 1.13938C20.0357 0.915379 19.9524 0.682578 19.7691 0.532978C19.5857 0.383378 19.3316 0.340178 19.1049 0.420978C15.6108 1.66258 4.85022 5.53858 0.451988 7.10099C0.172828 7.20018 -0.00883492 7.45779 0.000331537 7.74019C0.0103313 8.02339 0.20866 8.26899 0.494487 8.35139C2.46694 8.91779 5.05605 9.70579 5.05605 9.70579C5.05605 9.70579 6.26602 13.2138 6.89684 14.9978C6.97601 15.2218 7.1585 15.3978 7.39933 15.4586C7.63932 15.5186 7.89599 15.4554 8.07515 15.293C9.08846 14.3746 10.6551 12.9546 10.6551 12.9546C10.6551 12.9546 13.6317 15.0498 15.32 16.2042ZM6.14519 9.26259L7.54433 13.693L7.85515 10.8874C7.85515 10.8874 13.2609 6.20658 16.3425 3.53858C16.4325 3.46018 16.445 3.32898 16.37 3.23698C16.2958 3.14498 16.1591 3.12338 16.0566 3.18578C12.485 5.37538 6.14519 9.26259 6.14519 9.26259Z" fill="white"/>
</svg>
