<svg width="20" height="17" viewBox="0 0 20 17" fill="none" xmlns="http://www.w3.org/2000/svg">
<path d="M20 2.27503C19.2642 2.59661 18.4733 2.81318 17.6433 2.9108C18.4908 2.41121 19.1417 1.61958 19.4475 0.676183C18.655 1.13886 17.7767 1.4752 16.8417 1.6565C16.0942 0.871425 15.0267 0.380859 13.8467 0.380859C11.1975 0.380859 9.25083 2.814 9.84917 5.33984C6.44 5.17167 3.41667 3.5638 1.3925 1.11999C0.3175 2.93541 0.835 5.31031 2.66167 6.51293C1.99 6.4916 1.35667 6.31031 0.804167 6.0076C0.759167 7.87881 2.12167 9.62942 4.095 10.0191C3.5175 10.1733 2.885 10.2094 2.24167 10.088C2.76333 11.6926 4.27833 12.8599 6.075 12.8928C4.35 14.2242 2.17667 14.8189 0 14.5663C1.81583 15.7123 3.97333 16.3809 6.29 16.3809C13.9083 16.3809 18.2125 10.047 17.9525 4.36609C18.7542 3.79595 19.45 3.08471 20 2.27503Z" fill="white"/>
</svg>
